<?xml version="1.0" encoding="utf-8"?>
<!-- Generator: Adobe Illustrator 22.1.0, SVG Export Plug-In . SVG Version: 6.00 Build 0)  -->
<svg version="1.1" id="Layer_1" xmlns="http://www.w3.org/2000/svg" xmlns:xlink="http://www.w3.org/1999/xlink" x="0px" y="0px"
	 viewBox="0 0 500 500" style="enable-background:new 0 0 500 500;" xml:space="preserve">
<style type="text/css">
	.st0{fill:#A445D6;}
	.st1{fill-rule:evenodd;clip-rule:evenodd;fill:#2F4F6F;}
	.st2{fill-rule:evenodd;clip-rule:evenodd;fill:#112A45;}
	.st3{fill-rule:evenodd;clip-rule:evenodd;fill:#FFFFFF;}
	.st4{fill-rule:evenodd;clip-rule:evenodd;fill:#FF3131;}
	.st5{fill-rule:evenodd;clip-rule:evenodd;fill:#F9D8BC;}
	.st6{fill:#E88508;}
	.st7{fill:#FFCF00;}
	.st8{fill-rule:evenodd;clip-rule:evenodd;fill:#FFFF00;}
	.st9{fill-rule:evenodd;clip-rule:evenodd;fill:#E62C2C;}
</style>
<rect x="0.3" class="st0" width="500" height="500"/>
<g>
	<path id="World_Map" class="st1" d="M148.7,267.4c-7,17.9-1.5,4.2-11.9,14c-6.3,6-1.2,20.7,10.5,22.1c5.2,0.6-3.2,17.2,0.6,20.2
		c6.7,5.4-2,54.5,6,39.6c8.9-16.7-7.7-22,13.1-25.5c7.3-1.2,1.6-4.9,14.3-9.6c0.3-0.1,31.9-36.1,11.1-45.6
		c-10.4-4.8-21.7-8.9-30.5-15.5C159.2,265.1,149.5,265.3,148.7,267.4L148.7,267.4z M140,192.5c-5.1,4.5-18.7-5.7-13.6-0.5
		c0.2,0.1-1.2,10.9,5.7,17c7,6.1,13.1-3.3,16.4-7C149.4,201.1,148.2,185.2,140,192.5L140,192.5z M72.8,180.9
		c-24.5-1.8-18.4-21.3-28.8,19.2c-4.2,16.5,16.1,8.7,26.2-5.4c5,0.4,0.4,7.4,14.5,7.4c1.5,0,10.4,20.3,10.4,23
		c0,16.5,14.7,22.5,25.7,35.4c5.7,6.7,37.9,10.1,13.7-3.3c-10-5.5-4.8-23.3,8.8-3.4c1.3,1.9,18.2,8,4.5-2.9c-1-0.8-1.5-8.8-0.9-10.5
		c12.5-4.3,10.3,5.2,9.4-17.5c-0.4-9.8,31,1.6,15.8-15.4c-5.2-5.8,1.9-7.3-4.5-12.8c-3-2.5,8.9-8.9-13.3-26.7
		c-9.9-7.9,25-24.1,18.9,6.1c-1.1,5.5,4.3-1,4.5,9.9c0.2,10,20.9,26,12.6,3.5c-1.5-4.2,10-7.9,12.8-5.9c7.7,5.6,1.3-5.8,6.9-7.8
		c2.9-1.1-1.7-16.6-8.7-14.5c-12.9,3.8-4.8-42.6-23.5-19.5c-5.3,6.5,6,4.6-14.8,3.9c-6.1-0.2,3.8,5.8-20.2,4.5
		c-6.3-0.4-4.1,5.3-4.8,7.4c-14.6,3,11.8,10.4-2.4,19.4c-4.2,2.7-13.8-20.9-14.5-6.8c-0.1,1.2,16.9,15.2,1,15.9
		c-4.2,0.2-4.9-34.2-24.4-20.7c-7.5,5.2,16,24.6-5.3,15.1c-18.2-8.1-2,5.1-17,2.1C74.9,180.5,73.3,181,72.8,180.9L72.8,180.9z
		 M289.2,291.5c-3.4,11,5.9,1.6-3.8,12.4c-6,6.6,17.5,7.4,8.7-10.3C293.8,293.1,289.3,291.3,289.2,291.5L289.2,291.5z M450.2,326.6
		c-2,3.2-8,11.4-7.7,14.7c-9.3,2.4,8.7,5.5,9.4-2.5c0.2-2.4,10.5-3.9,0.3-12.5L450.2,326.6z M438.5,301c1,4.4,4.1,11.6,9.3,11
		c0.8-1.9,0-10.5-0.4-11.8C446.9,299.9,437.3,296,438.5,301L438.5,301z M406.1,297.3c-20.2,12.6-12.6,1.2-13.4,11.7
		c-0.1,0.6-28.2,17.2,5.3,15c7.3-0.5,14.5-1.5,17.6,8.3c2.1,6.5,26.7,7.8,9.5-18.9c-2.2-3.5,10.2-16.2-7.7-16.2
		c-5.8,0-1.8-9.3-9-1.6C408,295.9,408,296,406.1,297.3L406.1,297.3z M401.4,266.6c15.1,0,10.1,8,20.1,8.4c2.1,0.1,0.5,5.5,14.4,5.5
		c0,8.3-18.7,3.4-18.9,3.3c-12.3-7.4-1.8-2.1-12.8-4.4c-2.1-6.1,11.1,0-0.9-9C402.1,269.6,400.9,266.6,401.4,266.6L401.4,266.6z
		 M387.5,287.8c11.7-0.2,3-1.9,17.7-0.7c0.7,0.1,7.3-2.2-0.4,1.4c-2.6,1.2-9.2-1.6-15.9,2.4C381.4,295.3,380.1,287.9,387.5,287.8
		L387.5,287.8z M376.3,276.6c13,6,14.7,10.4,17.9-5.4C395.3,265.9,373.3,275.2,376.3,276.6L376.3,276.6z M357.1,279.6
		c11.3,5.7-0.9,4.5,11.7,10.8c0.8,0.4,16.1,10.8,8.8-2.8c-0.6-1.2-4.4-0.7-9.4-10.8C364.9,270,357.8,279.9,357.1,279.6L357.1,279.6z
		 M378.3,249.5c2.3,10.9-2.8-0.5-2,9.2c0.1,1.4-28.1,13.1-3,10c0.8-0.1,11.8-2.2,12.3-3C391.2,254.3,378.4,250.3,378.3,249.5
		L378.3,249.5z M220.1,234.3c-2.7,6.5-4.1,7.1-6,14.4c-5.1,19.8,21.9,8.8,26.7,20c2.7,6.1,2.4,2.5,4.6,11.4
		c3.3,12.7-4.1,10.9,5,16.8c4.4,2.8-7.9,10.8,10,21.4c5,2.9,1.5-11.8,15.1-16.2c2.7-0.8,0.9-15,11.2-24.2
		c0.6-0.5,16.1-58.2,31.3-24.7c13.4,29.7,12.2-20.8,28.8,2.6c0.4,0.5,1.8,22.9,8.5,9.4c3.8-7.6-5.1-3.6,7.5-8.1
		c6.5-2.3-4.8-12,7.5-16.3c9.6-3.3,2-10.3,11.5-16.2c0.1-0.1,14.8-22.2,8.9,5.3c-4.9,22.9,14.5,11.2,8.1-9.3
		c-2.1-6.7,6.3-3.7,0.7-20.2c-4.5-13.2,16.7-16.5,18-1c1.4,15.9,11,9.9,15.3-5.4c0.9-3.1,29.9,1.4,20.7-21.5
		c-11.5-28.5-6.9,9.3-34.3,1.3c-17.9-5.2,12.9-10.6-33-7c-12.3,1,1.1-17.6-44.5-8.1c-9.6,2,1.9,5.5-25.6,7.5
		c-1.8,0.1-12,10.9-11.5-1.4c0.1-2.8,5.5-1,5.5-8c-20,0-8.6,25.8-37.4,16.6c-10.5-3.4-14.2,1-12.3,10.3c2.4,11.8-17.6,11.6-8,4.1
		c3.5-2.8-12.1-25.4-10.5-7.8c0,0.2,9.9,19.7-2.4,24.1c-10.4,3.7,4.3,11.7-14,14.5C222.2,218.9,224,224.6,220.1,234.3L220.1,234.3z
		 M359.4,234.3c-20.3,6.4,8.9,7.1,3.1,1.3C361.2,234.4,358.9,234.4,359.4,234.3L359.4,234.3z M224.8,178.3
		c-3.6,12.7-16.5,21.8-1.9,20.1c6.3-0.7-2.2,10.6,8.4-5.6c4.5-6.8-0.9-1.5-2.3-12.8C229,179.6,225.8,174.8,224.8,178.3L224.8,178.3z
		"/>
	<g id="People">
		<g>
			<path class="st2" d="M150.7,366.4L150.7,366.4c20.7,0,37.7,16.7,38.3,37.2h-76.6C112.9,383.1,129.9,366.4,150.7,366.4
				L150.7,366.4z"/>
			<path class="st3" d="M150.7,366.4L150.7,366.4c5.5,0,10.7,1.2,15.4,3.2l-15.4,34l-15.4-34C140,367.6,145.2,366.4,150.7,366.4
				L150.7,366.4z"/>
			<polygon class="st4" points="150.7,366.4 144,375.4 150.7,403.7 157.4,375.4 			"/>
			<path class="st5" d="M150.7,364.7c13.1,0,23.7-10.7,23.7-23.7c0-13.1-10.7-23.7-23.7-23.7c-13.1,0-23.7,10.7-23.7,23.7
				C126.9,354,137.6,364.7,150.7,364.7L150.7,364.7z"/>
		</g>
		<g>
			<path class="st2" d="M350,317.7L350,317.7c24.2,0,44.1,19.4,44.7,43.5h-89.5C306,337.1,325.8,317.7,350,317.7L350,317.7z"/>
			<path class="st3" d="M350,317.7L350,317.7c6.4,0,12.5,1.3,18,3.8l-18,39.7l-18-39.7C337.6,319,343.7,317.7,350,317.7L350,317.7z"
				/>
			<polygon class="st4" points="350,317.7 342.2,328.2 350,361.1 357.9,328.2 			"/>
			<path class="st5" d="M350,315.6c15.2,0,27.7-12.4,27.7-27.7c0-15.3-12.5-27.7-27.7-27.7c-15.3,0-27.7,12.4-27.7,27.7
				C322.3,303.2,334.8,315.6,350,315.6L350,315.6z"/>
		</g>
		<g>
			<path class="st2" d="M123,157.6L123,157.6c14.5,0,26.5,11.7,26.9,26.1H96.1C96.5,169.3,108.5,157.6,123,157.6L123,157.6z"/>
			<path class="st3" d="M123,157.6L123,157.6c3.8,0,7.5,0.8,10.8,2.3L123,183.8l-10.8-23.9C115.5,158.4,119.2,157.6,123,157.6
				L123,157.6z"/>
			<polygon class="st4" points="123,157.6 118.3,164 123,183.8 127.7,164 			"/>
			<path class="st5" d="M123,156.4c9.2,0,16.7-7.5,16.7-16.7c0-9.2-7.5-16.7-16.7-16.7c-9.2,0-16.7,7.5-16.7,16.7
				C106.3,148.9,113.8,156.4,123,156.4L123,156.4z"/>
		</g>
	</g>
	<g id="Lines">
		<path class="st6" d="M400.4,341.6c-1.6,0-2.9-1.3-2.9-2.8c0-1.6,1.3-2.9,2.9-2.9H452v-90.7h-61.8c-1.6,0-2.8-1.2-2.8-2.8v-38.3
			h-79.9v46.7c0,1.6-1.3,2.8-2.8,2.8h-81.8c-1.5,0-2.8-1.2-2.8-2.8c0-1.6,1.3-2.8,2.8-2.8h78.9v-46.7c0-1.6,1.2-2.8,2.8-2.8h85.6
			c1.6,0,2.8,1.2,2.8,2.8v38.3h61.8c1.6,0,2.8,1.2,2.8,2.8v96.4c0,1.5-1.2,2.8-2.8,2.8H400.4z"/>
		<path class="st7" d="M104.4,378.7c1.6,0,2.8,1.3,2.8,2.8c0,1.6-1.2,2.8-2.8,2.8H64.9c-1.6,0-2.8-1.2-2.8-2.8v-81.3
			c0-1.5,1.2-2.8,2.8-2.8h155.2v-96.1h-33.5c-1.6,0-2.8-1.3-2.8-2.8V145H149c-1.5,0-2.8-1.2-2.8-2.8c0-1.6,1.3-2.8,2.8-2.8h37.6
			c1.6,0,2.8,1.2,2.8,2.8v53.4h33.5c1.6,0,2.9,1.2,2.9,2.8v101.7c0,1.6-1.3,2.8-2.9,2.8H67.7v75.7H104.4z"/>
	</g>
	<g id="Circles">
		<path class="st8" d="M145.9,137.9c2.6,0,4.8,2.1,4.8,4.6c0,2.5-2.1,4.6-4.8,4.6c-2.6,0-4.8-2.1-4.8-4.6
			C141.2,139.9,143.3,137.9,145.9,137.9L145.9,137.9z M145.9,133.4c5.2,0,9.4,4,9.4,9.1c0,5-4.2,9-9.4,9c-5.2,0-9.4-4-9.4-9
			C136.6,137.4,140.8,133.4,145.9,133.4L145.9,133.4z M145.9,131.5c6.3,0,11.3,4.9,11.3,11c0,6.1-5.1,11-11.3,11
			c-6.2,0-11.3-4.9-11.3-11C134.6,136.4,139.7,131.5,145.9,131.5L145.9,131.5z"/>
		<path class="st8" d="M402.7,328.3c4.6,0,8.4,3.6,8.4,8.1c0,4.5-3.7,8.1-8.4,8.1c-4.6,0-8.4-3.7-8.4-8.1
			C394.3,331.9,398,328.3,402.7,328.3L402.7,328.3z M402.7,320.5c9.1,0,16.5,7.1,16.5,16c0,8.8-7.4,16-16.5,16
			c-9.1,0-16.5-7.1-16.5-16C386.2,327.6,393.6,320.5,402.7,320.5L402.7,320.5z M402.7,317.1c11,0,20,8.6,20,19.3
			c0,10.7-8.9,19.3-20,19.3c-11,0-20-8.6-20-19.3C382.7,325.8,391.7,317.1,402.7,317.1L402.7,317.1z"/>
		<path class="st8" d="M106.1,374.9c3.7,0,6.8,2.9,6.8,6.5c0,3.6-3,6.5-6.8,6.5c-3.7,0-6.7-2.9-6.7-6.5
			C99.4,377.8,102.4,374.9,106.1,374.9L106.1,374.9z M106.1,368.6c7.3,0,13.3,5.7,13.3,12.8c0,7.1-5.9,12.8-13.3,12.8
			c-7.3,0-13.2-5.7-13.2-12.8C92.9,374.3,98.8,368.6,106.1,368.6L106.1,368.6z M106.1,365.9c8.9,0,16,6.9,16,15.5
			c0,8.6-7.2,15.5-16,15.5c-8.8,0-16-6.9-16-15.5C90.1,372.8,97.3,365.9,106.1,365.9L106.1,365.9z"/>
	</g>
	<g id="Thumb">
		<path class="st3" d="M320.6,136.3c15.9,0,28.8,12.9,28.8,28.8c0,15.9-12.9,28.8-28.8,28.8c-15.9,0-28.8-12.9-28.8-28.8
			C291.9,149.2,304.7,136.3,320.6,136.3L320.6,136.3z M320.6,132.6c17.9,0,32.5,14.5,32.5,32.5c0,17.9-14.5,32.5-32.5,32.5
			c-17.9,0-32.5-14.5-32.5-32.5C288.2,147.1,302.7,132.6,320.6,132.6L320.6,132.6z"/>
		<path class="st5" d="M325.1,142.9c-0.4,3.6,0.4,7.8,1.3,10.9c0.9,3,1.5,3.3,1.7,4.8h0.2h0.8h0.8v17.7h-0.8l0,0h-1.4
			c-0.6,0.7-1.4,1.1-2.4,1.2l-7.6,0.5c-0.1,0-0.2,0-0.3,0c-4,0.4-8.3,0.4-12.8,0.4c-1.8,0-3.2-1.4-3.2-3.2l0,0
			c0-1.8,1.5-3.2,3.2-3.2c-1.8,0-3.2-1.5-3.2-3.3l0,0c0-1.8,1.5-3.2,3.2-3.2c-1.8,0-3.2-1.5-3.2-3.3l0,0c0-1.8,1.5-3.2,3.2-3.2
			c-1.8,0-3.2-1.5-3.2-3.3l0,0c0-1.8,1.5-3.2,3.2-3.2c4.9,0,9.8,0,14.6,0c-0.3-3-0.8-9.1,0.9-11.6c1.4-2.1,3.4-3.7,4.6-3.8
			C326.2,137.2,325.4,140.3,325.1,142.9L325.1,142.9z"/>
		<path class="st3" d="M336.2,157.8h-6.1c-0.5,0-1,0.4-1,1v17.1c0,0.5,0.4,0.9,1,0.9h6.1c0.5,0,1-0.4,1-0.9v-17.1
			C337.2,158.3,336.7,157.8,336.2,157.8L336.2,157.8z"/>
		<path class="st9" d="M341.4,157.2h-9c-0.9,0-1.7,0.7-1.7,1.7v16.8c0,0.9,0.8,1.7,1.7,1.7h9V157.2z"/>
		<path class="st3" d="M320.6,127.7c20.7,0,37.4,16.8,37.4,37.4c0,20.7-16.8,37.4-37.4,37.4c-20.7,0-37.4-16.7-37.4-37.4
			C283.2,144.4,300,127.7,320.6,127.7L320.6,127.7z M320.6,126.1c21.5,0,39,17.5,39,39c0,21.5-17.5,39-39,39
			c-21.5,0-38.9-17.5-38.9-39C281.7,143.6,299.1,126.1,320.6,126.1L320.6,126.1z"/>
	</g>
	<g id="Check">
		<path class="st3" d="M180.2,248.4c15.9,0,28.8,12.9,28.8,28.8c0,15.9-12.9,28.8-28.8,28.8c-15.9,0-28.8-12.9-28.8-28.8
			C151.4,261.3,164.3,248.4,180.2,248.4L180.2,248.4z M180.2,244.7c17.9,0,32.5,14.5,32.5,32.5c0,17.9-14.5,32.5-32.5,32.5
			s-32.5-14.5-32.5-32.5C147.7,259.3,162.3,244.7,180.2,244.7L180.2,244.7z"/>
		<path class="st3" d="M180.2,239.8c20.7,0,37.4,16.7,37.4,37.4c0,20.7-16.8,37.4-37.4,37.4c-20.7,0-37.4-16.7-37.4-37.4
			C142.8,256.5,159.5,239.8,180.2,239.8L180.2,239.8z M180.2,238.2c21.5,0,38.9,17.5,38.9,39c0,21.5-17.4,39-38.9,39s-39-17.5-39-39
			C141.2,255.7,158.7,238.2,180.2,238.2L180.2,238.2z"/>
		<polygon class="st4" points="177.2,282.3 158,271 179.4,297.4 220.1,236.3 		"/>
	</g>
</g>
</svg>
